<mxfile host="app.diagrams.net" modified="2023-07-24T14:02:29.541Z" agent="Mozilla/5.0 (Macintosh; Intel Mac OS X 10_15_7) AppleWebKit/537.36 (KHTML, like Gecko) Chrome/114.0.0.0 Safari/537.36" etag="G17KOAgmahztony0YD63" version="21.1.7" type="github">
  <diagram name="Page-1" id="CE-ufxkDqoKHNzRjA1UW">
    <mxGraphModel dx="1234" dy="1131" grid="1" gridSize="10" guides="1" tooltips="1" connect="1" arrows="1" fold="1" page="1" pageScale="1" pageWidth="827" pageHeight="1169" math="0" shadow="0">
      <root>
        <mxCell id="0" />
        <mxCell id="1" parent="0" />
        <mxCell id="KvPrG7z39f3oK2vHOuyx-1" value="Start" style="rounded=1;whiteSpace=wrap;html=1;" vertex="1" parent="1">
          <mxGeometry x="320" y="80" width="120" height="50" as="geometry" />
        </mxCell>
        <mxCell id="KvPrG7z39f3oK2vHOuyx-2" value="" style="endArrow=classic;html=1;rounded=0;exitX=0.5;exitY=1;exitDx=0;exitDy=0;" edge="1" parent="1" source="KvPrG7z39f3oK2vHOuyx-1">
          <mxGeometry width="50" height="50" relative="1" as="geometry">
            <mxPoint x="390" y="600" as="sourcePoint" />
            <mxPoint x="380" y="180" as="targetPoint" />
          </mxGeometry>
        </mxCell>
        <mxCell id="KvPrG7z39f3oK2vHOuyx-3" value="Give cards -&amp;gt; Player 2 open / Computer 1 hidden, 1 open" style="text;html=1;strokeColor=none;fillColor=none;align=center;verticalAlign=middle;whiteSpace=wrap;rounded=0;" vertex="1" parent="1">
          <mxGeometry x="480" y="610" width="190" height="50" as="geometry" />
        </mxCell>
        <mxCell id="KvPrG7z39f3oK2vHOuyx-8" value="" style="edgeStyle=orthogonalEdgeStyle;rounded=0;orthogonalLoop=1;jettySize=auto;html=1;" edge="1" parent="1" source="KvPrG7z39f3oK2vHOuyx-5" target="KvPrG7z39f3oK2vHOuyx-7">
          <mxGeometry relative="1" as="geometry" />
        </mxCell>
        <mxCell id="KvPrG7z39f3oK2vHOuyx-5" value="Show money in bank" style="rounded=0;whiteSpace=wrap;html=1;" vertex="1" parent="1">
          <mxGeometry x="320" y="180" width="120" height="60" as="geometry" />
        </mxCell>
        <mxCell id="KvPrG7z39f3oK2vHOuyx-7" value="Choose how much money should be used (The bet)" style="rounded=0;whiteSpace=wrap;html=1;" vertex="1" parent="1">
          <mxGeometry x="320" y="320" width="120" height="60" as="geometry" />
        </mxCell>
      </root>
    </mxGraphModel>
  </diagram>
</mxfile>
